v 0.000000 1.000000 0.000000
v 0.500000 1.000000 0.000000
v 0.000000 1.000000 0.500000
v 0.000000 0.300000 0.500000
v 0.000000 1.000000 0.500000
v 0.500000 0.200000 0.000000
v 0.500000 1.000000 0.000000
v 0.500000 0.200000 0.000000
v 0.000000 1.000000 0.500000
v 1.000000 0.100000 1.000000
v 0.000000 0.300000 1.000000
v 1.000000 0.200000 0.000000
v 0.000000 0.300000 0.500000
v 0.500000 0.200000 0.000000
vt 0.000000 1.000000
vt 0.000000 0.000000
vt 0.000000 0.000000
vt 1.000000 0.000000
vt 1.000000 0.000000
vt 1.000000 0.000000
vt 1.000000 0.000000
vt 1.000000 0.000000
vt 1.000000 0.000000
vt 0.000000 1.000000
vt 0.000000 1.000000
vt 0.000000 1.000000
vt 1.000000 1.000000
vt 1.000000 1.000000
vn 0.000000 1.000000 -0.000015
vn 0.000000 1.000000 -0.000015
vn 0.000000 1.000000 -0.000015
vn 0.707107 -0.000022 0.707107
vn 0.707107 -0.000022 0.707107
vn 0.707107 -0.000022 0.707107
vn 0.707107 -0.000022 0.707107
vn 0.707107 -0.000022 0.707107
vn 0.707107 -0.000022 0.707107
vn 0.195157 0.975901 0.097627
vn 0.131441 0.991324 -0.000600
vn 0.098548 0.995132 -0.000952
vn 0.196095 0.980585 0.000054
vn 0.098678 0.993861 -0.050019
f 1/1/1 3/3/3 2/2/2
f 4/4/4 6/6/6 5/5/5
f 7/7/7 9/9/9 8/8/8
f 10/10/10 12/12/12 11/11/11
f 11/11/11 14/14/14 13/13/13
f 12/12/12 14/14/14 11/11/11
