v 0.000000 0.000000 0.000000
v 0.500000 0.000000 0.000000
v 0.000000 0.000000 0.500000
v 0.000000 0.000000 0.500000
v 0.500000 0.000000 0.000000
v 0.000000 1.000000 0.500000
v 0.500000 1.000000 0.000000
v 0.000000 1.000000 0.500000
v 0.500000 0.000000 0.000000
v 0.000000 1.000000 0.500000
v 0.500000 1.000000 0.000000
v 0.000000 1.000000 1.000000
v 0.500000 1.000000 1.000000
v 1.000000 2.000000 0.000000
v 1.000000 2.000000 0.500000
v 0.500000 2.000000 0.000000
v 0.500000 2.000000 1.000000
v 0.500000 1.000000 0.000000
v 0.500000 2.000000 0.000000
v 0.500000 1.000000 1.000000
v 0.500000 2.000000 1.000000
v 0.500000 1.000000 1.000000
v 0.500000 2.000000 0.000000
v 1.000000 3.000000 1.000000
v 0.500000 3.000000 1.000000
v 1.000000 3.000000 0.500000
v 1.000000 2.000000 0.500000
v 1.000000 3.000000 0.500000
v 0.500000 2.000000 1.000000
v 0.500000 3.000000 1.000000
v 0.500000 2.000000 1.000000
v 1.000000 3.000000 0.500000
vt 0.000000 1.000000
vt 1.000000 1.000000
vt 1.000000 1.000000
vt 1.000000 0.000000
vt 1.000000 0.000000
vt 1.000000 0.000000
vt 1.000000 0.000000
vt 1.000000 0.000000
vt 1.000000 0.000000
vt 0.000000 0.000000
vt 1.000000 0.000000
vt 0.000000 1.000000
vt 1.000000 2.000000
vt 0.000000 1.000000
vt 1.000000 1.000000
vt -1.000000 0.000000
vt 1.000000 0.000000
vt 1.000000 0.000000
vt 1.000000 0.000000
vt 1.000000 0.000000
vt 1.000000 0.000000
vt 1.000000 0.000000
vt 1.000000 0.000000
vt 0.000000 1.000000
vt 0.000000 0.000000
vt 0.000000 0.000000
vt 1.000000 0.000000
vt 1.000000 0.000000
vt 1.000000 0.000000
vt 1.000000 0.000000
vt 1.000000 0.000000
vt 1.000000 0.000000
vn 0.000000 1.000000 -0.000015
vn 0.000000 1.000000 -0.000015
vn 0.000000 1.000000 -0.000015
vn -0.707118 0.000000 -0.707096
vn -0.707118 0.000000 -0.707096
vn -0.707118 0.000000 -0.707096
vn -0.707118 0.000000 -0.707096
vn -0.707118 0.000000 -0.707096
vn -0.707118 0.000000 -0.707096
vn 0.000000 1.000000 -0.000015
vn 0.000000 1.000000 -0.000015
vn 0.000000 1.000000 -0.000015
vn 0.000000 1.000000 -0.000015
vn 0.000000 1.000000 -0.000015
vn 0.000000 1.000000 -0.000015
vn 0.000000 1.000000 -0.000015
vn 0.000000 1.000000 -0.000015
vn -1.000000 0.000000 -0.000015
vn -1.000000 0.000000 -0.000015
vn -1.000000 0.000000 -0.000015
vn -1.000000 0.000000 -0.000015
vn -1.000000 0.000000 -0.000015
vn -1.000000 0.000000 -0.000015
vn 0.000000 1.000000 -0.000015
vn 0.000000 1.000000 -0.000015
vn 0.000000 1.000000 -0.000015
vn -0.707118 0.000000 -0.707096
vn -0.707118 0.000000 -0.707096
vn -0.707118 0.000000 -0.707096
vn -0.707118 0.000000 -0.707096
vn -0.707118 0.000000 -0.707096
vn -0.707118 0.000000 -0.707096
f 1/1/1 3/3/3 2/2/2
f 4/4/4 6/6/6 5/5/5
f 7/7/7 9/9/9 8/8/8
f 10/10/10 12/12/12 11/11/11
f 13/13/13 11/11/11 12/12/12
f 14/14/14 16/16/16 15/15/15
f 17/17/17 15/15/15 16/16/16
f 18/18/18 20/20/20 19/19/19
f 21/21/21 23/23/23 22/22/22
f 24/24/24 26/26/26 25/25/25
f 27/27/27 29/29/29 28/28/28
f 30/30/30 32/32/32 31/31/31
