v 0.000000 1.000000 0.000000
v 1.000000 0.500000 0.000000
v 1.000000 0.500000 0.500000
v 1.000000 0.500000 0.500000
v 0.000000 1.000000 0.500000
v 0.000000 0.000000 0.500000
v 0.000000 1.000000 0.500000
v 1.000000 0.500000 0.500000
v 0.000000 0.000000 0.500000
v 1.000000 0.500000 0.500000
v 0.000000 0.000000 1.000000
v 1.000000 0.500000 1.000000
vt 0.000000 1.000000
vt 0.000000 1.000000
vt 0.000000 1.000000
vt 0.000000 0.000000
vt 0.000000 0.000000
vt 1.000000 0.000000
vt 1.000000 0.000000
vt 1.000000 0.000000
vt 1.000000 1.000000
vt 1.000000 1.000000
vt 0.000000 1.000000
vt 0.000000 1.000000
vn 0.447222 0.894423 0.000020
vn 0.447222 0.894423 0.000020
vn 0.000000 1.000000 -0.000015
vn 0.000000 1.000000 -0.000015
vn 0.447222 0.894423 0.000020
vn -0.000015 -0.000015 1.000000
vn -0.000015 -0.000015 1.000000
vn -0.000015 -0.000015 1.000000
vn -0.447246 0.894411 -0.000020
vn 0.000000 1.000000 -0.000015
vn -0.447246 0.894411 -0.000020
vn -0.447246 0.894411 -0.000020
f 1/1/1 3/3/3 2/2/2
f 4/4/4 1/1/1 5/5/5
f 6/6/6 8/8/8 7/7/7
f 9/9/9 11/11/11 10/10/10
f 12/12/12 3/3/3 11/11/11
