v 0.000000 1.000000 0.000000
v 1.000000 1.100000 0.000000
v 0.000000 1.000000 0.500000
v 1.000000 1.100000 0.500000
v 0.000000 0.100000 0.500000
v 0.000000 1.000000 0.500000
v 1.000000 0.150000 0.500000
v 1.000000 1.100000 0.500000
v 0.000000 0.100000 0.500000
v 1.000000 0.150000 0.500000
v 0.000000 0.100000 1.000000
v 1.000000 0.150000 1.000000
vt 0.000000 1.000000
vt 0.000000 1.000000
vt 0.000000 0.000000
vt 0.000000 0.000000
vt 1.000000 0.000000
vt 1.000000 0.000000
vt 1.000000 0.000000
vt 1.000000 0.000000
vt 1.000000 1.000000
vt 1.000000 1.000000
vt 0.000000 1.000000
vt 0.000000 1.000000
vn -0.099510 0.995037 -0.000017
vn -0.099510 0.995037 -0.000017
vn -0.099510 0.995037 -0.000017
vn -0.099510 0.995037 -0.000017
vn -0.000015 -0.000015 1.000000
vn -0.000015 -0.000015 1.000000
vn -0.000015 -0.000015 1.000000
vn -0.000015 -0.000015 1.000000
vn -0.049943 0.998752 0.000016
vn -0.049943 0.998752 0.000016
vn -0.049943 0.998752 0.000016
vn -0.049943 0.998752 0.000016
f 1/1/1 3/3/3 2/2/2
f 4/4/4 2/2/2 3/3/3
f 5/5/5 7/7/7 6/6/6
f 8/8/8 6/6/6 7/7/7
f 9/9/9 11/11/11 10/10/10
f 12/12/12 10/10/10 11/11/11
