v 0.500000 0.900000 0.000000
v 1.000000 0.900000 0.000000
v 0.000000 0.900000 0.500000
v 1.000000 0.900000 0.500000
v 0.000000 -0.100000 0.500000
v 0.000000 0.900000 0.500000
v 1.000000 0.200000 0.500000
v 1.000000 0.900000 0.500000
v 0.000000 -0.100000 0.500000
v 1.000000 0.200000 0.500000
v 0.000000 -0.100000 1.000000
v 1.000000 0.200000 1.000000
v 0.000000 2.100000 0.000000
v 0.500000 2.100000 0.000000
v 0.000000 2.100000 0.500000
v 0.000000 0.900000 0.500000
v 0.000000 2.100000 0.500000
v 0.500000 0.900000 0.000000
v 0.500000 2.100000 0.000000
v 0.500000 0.900000 0.000000
v 0.000000 2.100000 0.500000
vt 1.000000 1.000000
vt 0.000000 1.000000
vt 1.000000 0.000000
vt -1.000000 0.000000
vt 1.000000 0.000000
vt 1.000000 0.000000
vt 1.000000 0.000000
vt 1.000000 0.000000
vt 1.000000 1.000000
vt 1.000000 1.000000
vt 0.000000 1.000000
vt 0.000000 1.000000
vt 0.000000 1.000000
vt 0.000000 0.000000
vt 0.000000 0.000000
vt 1.000000 0.000000
vt 1.000000 0.000000
vt 1.000000 0.000000
vt 1.000000 0.000000
vt 1.000000 0.000000
vt 1.000000 0.000000
vn 0.000000 1.000000 -0.000015
vn 0.000000 1.000000 -0.000015
vn 0.000000 1.000000 -0.000015
vn 0.000000 1.000000 -0.000015
vn -0.000015 -0.000015 1.000000
vn -0.000015 -0.000015 1.000000
vn -0.000015 -0.000015 1.000000
vn -0.000015 -0.000015 1.000000
vn -0.287365 0.957821 -0.000019
vn -0.287365 0.957821 -0.000019
vn -0.287365 0.957821 -0.000019
vn -0.287365 0.957821 -0.000019
vn 0.000000 1.000000 -0.000015
vn 0.000000 1.000000 -0.000015
vn 0.000000 1.000000 -0.000015
vn 0.707107 -0.000022 0.707107
vn 0.707107 -0.000022 0.707107
vn 0.707107 -0.000022 0.707107
vn 0.707107 -0.000022 0.707107
vn 0.707107 -0.000022 0.707107
vn 0.707107 -0.000022 0.707107
f 1/1/1 3/3/3 2/2/2
f 4/4/4 2/2/2 3/3/3
f 5/5/5 7/7/7 6/6/6
f 8/8/8 6/6/6 7/7/7
f 9/9/9 11/11/11 10/10/10
f 12/12/12 10/10/10 11/11/11
f 13/13/13 15/15/15 14/14/14
f 16/16/16 18/18/18 17/17/17
f 19/19/19 21/21/21 20/20/20
