v 1.000000 0.000000 0.000000
v 1.000000 0.000000 0.500000
v 0.500000 0.000000 0.000000
v 0.500000 0.000000 0.000000
v 1.000000 0.000000 0.500000
v 0.500000 0.900000 0.000000
v 1.000000 0.700000 0.500000
v 1.000000 0.700000 1.000000
v 0.000000 0.900000 0.000000
v 1.000000 0.700000 0.500000
v 0.500000 0.900000 0.000000
v 0.500000 0.700000 1.000000
v 0.000000 0.900000 0.500000
v 0.000000 0.000000 1.000000
v 0.000000 0.000000 0.500000
v 0.500000 0.000000 1.000000
v 0.500000 0.000000 1.000000
v 0.000000 0.000000 0.500000
v 0.500000 0.700000 1.000000
v 0.000000 0.900000 0.500000
vt 0.000000 1.000000
vt 1.000000 1.000000
vt 1.000000 1.000000
vt 1.000000 0.000000
vt 1.000000 0.000000
vt 1.000000 0.000000
vt 1.000000 0.000000
vt 0.000000 1.000000
vt 0.000000 1.000000
vt 0.000000 0.000000
vt 0.000000 0.000000
vt 0.000000 0.000000
vt 0.000000 0.000000
vt 0.000000 1.000000
vt 1.000000 1.000000
vt 1.000000 1.000000
vt 1.000000 0.000000
vt 1.000000 0.000000
vt 1.000000 0.000000
vt 1.000000 0.000000
vn 0.000000 1.000000 -0.000015
vn 0.000000 1.000000 -0.000015
vn 0.000000 1.000000 -0.000015
vn 0.707118 0.000000 -0.707096
vn 0.707118 0.000000 -0.707096
vn 0.707118 0.000000 -0.707096
vn 0.707118 0.000000 -0.707096
vn 0.099013 0.990144 0.099049
vn 0.145425 0.978612 0.145502
vn 0.100318 0.976641 0.190023
vn -0.000020 0.928467 0.371415
vn 0.189985 0.976644 0.100357
vn 0.371381 0.928481 0.000060
vn 0.000000 1.000000 -0.000015
vn 0.000000 1.000000 -0.000015
vn 0.000000 1.000000 -0.000015
vn -0.707150 -0.000022 0.707064
vn -0.707150 -0.000022 0.707064
vn -0.707150 -0.000022 0.707064
vn -0.707150 -0.000022 0.707064
f 1/1/1 3/3/3 2/2/2
f 4/4/4 6/6/6 5/5/5
f 7/7/7 5/5/5 6/6/6
f 8/8/8 10/10/10 9/9/9
f 9/9/9 10/10/10 11/11/11
f 8/8/8 9/9/9 12/12/12
f 9/9/9 13/13/13 12/12/12
f 14/14/14 16/16/16 15/15/15
f 17/17/17 19/19/19 18/18/18
f 20/20/20 18/18/18 19/19/19
