v 0.000000 0.000000 0.000000
v 0.500000 0.000000 0.000000
v 0.000000 0.000000 0.500000
v 0.000000 0.000000 0.500000
v 0.500000 0.000000 0.000000
v 0.000000 0.800000 0.500000
v 0.500000 0.800000 0.000000
v 0.000000 0.800000 0.500000
v 0.500000 0.000000 0.000000
v 1.000000 0.800000 0.000000
v 0.000000 0.800000 1.000000
v 0.500000 0.800000 0.000000
v 0.000000 0.800000 0.500000
v 1.000000 0.800000 0.500000
v 0.500000 0.800000 1.000000
v 1.000000 0.000000 1.000000
v 0.500000 0.000000 1.000000
v 1.000000 0.000000 0.500000
v 1.000000 0.000000 0.500000
v 0.500000 0.000000 1.000000
v 1.000000 0.800000 0.500000
v 0.500000 0.800000 1.000000
v 1.000000 0.800000 0.500000
v 0.500000 0.000000 1.000000
v 1.000000 2.000000 0.000000
v 1.000000 2.000000 0.500000
v 0.500000 2.000000 0.000000
v 0.500000 0.000000 0.000000
v 0.500000 2.000000 0.000000
v 1.000000 0.000000 0.500000
v 1.000000 2.000000 0.500000
vt 0.000000 1.000000
vt 1.000000 1.000000
vt 1.000000 1.000000
vt 1.000000 0.000000
vt 1.000000 0.000000
vt 1.000000 0.000000
vt 1.000000 0.000000
vt 1.000000 0.000000
vt 1.000000 0.000000
vt 0.000000 1.000000
vt 0.000000 1.000000
vt 0.000000 0.000000
vt 0.000000 0.000000
vt 0.000000 0.000000
vt 0.000000 0.000000
vt 0.000000 1.000000
vt 1.000000 1.000000
vt 1.000000 1.000000
vt 1.000000 0.000000
vt 1.000000 0.000000
vt 1.000000 0.000000
vt 1.000000 0.000000
vt 1.000000 0.000000
vt 1.000000 0.000000
vt 0.000000 1.000000
vt 0.000000 0.000000
vt 0.000000 0.000000
vt 1.000000 0.000000
vt 1.000000 0.000000
vt 1.000000 0.000000
vt 1.000000 0.000000
vn 0.000000 1.000000 -0.000015
vn 0.000000 1.000000 -0.000015
vn 0.000000 1.000000 -0.000015
vn -0.707118 0.000000 -0.707096
vn -0.707118 0.000000 -0.707096
vn -0.707118 0.000000 -0.707096
vn -0.707118 0.000000 -0.707096
vn -0.707118 0.000000 -0.707096
vn -0.707118 0.000000 -0.707096
vn 0.000000 1.000000 -0.000015
vn 0.000000 1.000000 -0.000015
vn 0.000000 1.000000 -0.000015
vn 0.000000 1.000000 -0.000015
vn 0.000000 1.000000 -0.000015
vn 0.000000 1.000000 -0.000015
vn 0.000000 1.000000 -0.000015
vn 0.000000 1.000000 -0.000015
vn 0.000000 1.000000 -0.000015
vn 0.707107 -0.000022 0.707107
vn 0.707107 -0.000022 0.707107
vn 0.707107 -0.000022 0.707107
vn 0.707107 -0.000022 0.707107
vn 0.707107 -0.000022 0.707107
vn 0.707107 -0.000022 0.707107
vn 0.000000 1.000000 -0.000015
vn 0.000000 1.000000 -0.000015
vn 0.000000 1.000000 -0.000015
vn -0.707150 -0.000022 0.707064
vn -0.707150 -0.000022 0.707064
vn -0.707150 -0.000022 0.707064
vn -0.707150 -0.000022 0.707064
f 1/1/1 3/3/3 2/2/2
f 4/4/4 6/6/6 5/5/5
f 7/7/7 9/9/9 8/8/8
f 10/10/10 12/12/12 11/11/11
f 11/11/11 12/12/12 13/13/13
f 10/10/10 11/11/11 14/14/14
f 11/11/11 15/15/15 14/14/14
f 16/16/16 18/18/18 17/17/17
f 19/19/19 21/21/21 20/20/20
f 22/22/22 24/24/24 23/23/23
f 25/25/25 27/27/27 26/26/26
f 28/28/28 30/30/30 29/29/29
f 31/31/31 29/29/29 30/30/30
