v 0.000000 0.000000 0.000000
v 0.500000 0.000000 0.000000
v 0.000000 0.000000 0.500000
v 0.000000 0.000000 0.500000
v 0.500000 0.000000 0.000000
v 0.000000 1.200000 0.500000
v 0.500000 1.100000 0.000000
v 0.000000 1.200000 0.500000
v 0.500000 0.000000 0.000000
v 1.000000 1.300000 1.000000
v 0.000000 1.200000 1.000000
v 1.000000 1.100000 0.000000
v 0.000000 1.200000 0.500000
v 0.500000 1.100000 0.000000
vt 0.000000 1.000000
vt 1.000000 1.000000
vt 1.000000 1.000000
vt 1.000000 0.000000
vt 1.000000 0.000000
vt 1.000000 0.000000
vt 1.000000 0.000000
vt 1.000000 0.000000
vt 1.000000 0.000000
vt 0.000000 1.000000
vt 0.000000 1.000000
vt 0.000000 1.000000
vt 0.000000 0.000000
vt 0.000000 0.000000
vn 0.000000 1.000000 -0.000015
vn 0.000000 1.000000 -0.000015
vn 0.000000 1.000000 -0.000015
vn -0.707118 0.000000 -0.707096
vn -0.707118 0.000000 -0.707096
vn -0.707118 0.000000 -0.707096
vn -0.707118 0.000000 -0.707096
vn -0.707118 0.000000 -0.707096
vn -0.707118 0.000000 -0.707096
vn -0.097609 0.975895 -0.195198
vn 0.033224 0.994509 -0.099241
vn -0.048943 0.987824 -0.147678
vn 0.196095 0.980585 0.000054
vn 0.098678 0.993861 -0.050019
f 1/1/1 3/3/3 2/2/2
f 4/4/4 6/6/6 5/5/5
f 7/7/7 9/9/9 8/8/8
f 10/10/10 12/12/12 11/11/11
f 11/11/11 14/14/14 13/13/13
f 12/12/12 14/14/14 11/11/11
