v 0.000000 0.000000 0.000000
v 0.500000 0.000000 0.000000
v 0.000000 0.000000 0.500000
v 0.000000 0.000000 0.500000
v 0.500000 0.000000 0.000000
v 0.000000 1.200000 0.500000
v 0.500000 1.100000 0.000000
v 0.000000 1.200000 0.500000
v 0.500000 0.000000 0.000000
v 1.000000 1.100000 0.000000
v 0.000000 1.200000 1.000000
v 0.500000 1.100000 0.000000
v 0.000000 1.200000 0.500000
v 1.000000 1.100000 0.500000
v 0.500000 1.200000 1.000000
v 1.000000 2.200000 1.000000
v 0.500000 2.200000 1.000000
v 1.000000 2.200000 0.500000
v 1.000000 1.100000 0.500000
v 1.000000 2.200000 0.500000
v 0.500000 1.200000 1.000000
v 0.500000 2.200000 1.000000
v 0.500000 1.200000 1.000000
v 1.000000 2.200000 0.500000
vt 0.000000 1.000000
vt 1.000000 1.000000
vt 1.000000 1.000000
vt 1.000000 0.000000
vt 1.000000 0.000000
vt 1.000000 0.000000
vt 1.000000 0.000000
vt 1.000000 0.000000
vt 1.000000 0.000000
vt 0.000000 1.000000
vt 0.000000 1.000000
vt 0.000000 0.000000
vt 0.000000 0.000000
vt 1.000000 1.000000
vt 1.000000 1.000000
vt 0.000000 1.000000
vt 0.000000 0.000000
vt 0.000000 0.000000
vt 1.000000 0.000000
vt 1.000000 0.000000
vt 1.000000 0.000000
vt 1.000000 0.000000
vt 1.000000 0.000000
vt 1.000000 0.000000
vn 0.000000 1.000000 -0.000015
vn 0.000000 1.000000 -0.000015
vn 0.000000 1.000000 -0.000015
vn -0.707118 0.000000 -0.707096
vn -0.707118 0.000000 -0.707096
vn -0.707118 0.000000 -0.707096
vn -0.707118 0.000000 -0.707096
vn -0.707118 0.000000 -0.707096
vn -0.707118 0.000000 -0.707096
vn 0.049894 0.997510 -0.049844
vn 0.074419 0.994450 -0.074367
vn 0.098678 0.993861 -0.050019
vn 0.196095 0.980585 0.000054
vn 0.050072 0.993864 -0.098626
vn 0.000000 0.980587 -0.196085
vn 0.000000 1.000000 -0.000015
vn 0.000000 1.000000 -0.000015
vn 0.000000 1.000000 -0.000015
vn -0.707118 0.000000 -0.707096
vn -0.707118 0.000000 -0.707096
vn -0.707118 0.000000 -0.707096
vn -0.707118 0.000000 -0.707096
vn -0.707118 0.000000 -0.707096
vn -0.707118 0.000000 -0.707096
f 1/1/1 3/3/3 2/2/2
f 4/4/4 6/6/6 5/5/5
f 7/7/7 9/9/9 8/8/8
f 10/10/10 12/12/12 11/11/11
f 11/11/11 12/12/12 13/13/13
f 10/10/10 11/11/11 14/14/14
f 11/11/11 15/15/15 14/14/14
f 16/16/16 18/18/18 17/17/17
f 19/19/19 21/21/21 20/20/20
f 22/22/22 24/24/24 23/23/23
