v 0.000000 0.000000 0.000000
v 0.500000 0.000000 0.000000
v 0.000000 0.000000 0.500000
v 0.000000 0.000000 0.500000
v 0.500000 0.000000 0.000000
v 0.000000 1.100000 0.500000
v 0.500000 1.100000 0.000000
v 0.000000 1.100000 0.500000
v 0.500000 0.000000 0.000000
v 1.000000 0.900000 1.000000
v 0.500000 0.900000 1.000000
v 1.000000 1.000000 0.500000
v 1.000000 1.100000 0.000000
v 0.500000 1.100000 0.000000
v 0.000000 1.100000 0.500000
v 0.000000 1.100000 0.500000
v 0.500000 0.900000 1.000000
v 0.000000 2.100000 0.500000
v 0.500000 2.100000 1.000000
v 0.000000 2.100000 1.000000
v 0.000000 2.100000 0.500000
v 0.500000 2.100000 1.000000
vt 0.000000 1.000000
vt 1.000000 1.000000
vt 1.000000 1.000000
vt 1.000000 0.000000
vt 1.000000 0.000000
vt 1.000000 0.000000
vt 1.000000 0.000000
vt 1.000000 0.000000
vt 1.000000 0.000000
vt 0.000000 1.000000
vt 1.000000 1.000000
vt 0.000000 1.000000
vt 0.000000 1.000000
vt 0.000000 0.000000
vt 1.000000 0.000000
vt 1.000000 0.000000
vt 1.000000 0.000000
vt 1.000000 0.000000
vt 1.000000 0.000000
vt 0.000000 1.000000
vt 0.000000 0.000000
vt 0.000000 0.000000
vn 0.000000 1.000000 -0.000015
vn 0.000000 1.000000 -0.000015
vn 0.000000 1.000000 -0.000015
vn -0.707118 0.000000 -0.707096
vn -0.707118 0.000000 -0.707096
vn -0.707118 0.000000 -0.707096
vn -0.707118 0.000000 -0.707096
vn -0.707118 0.000000 -0.707096
vn -0.707118 0.000000 -0.707096
vn -0.000018 0.980578 0.196130
vn 0.047763 0.969185 0.241658
vn 0.048741 0.979580 0.195057
vn -0.000018 0.980578 0.196130
vn 0.049612 0.987747 0.147969
vn 0.097599 0.976238 0.193476
vn 0.707118 0.000000 -0.707096
vn 0.707118 0.000000 -0.707096
vn 0.707118 0.000000 -0.707096
vn 0.707118 0.000000 -0.707096
vn 0.000000 1.000000 -0.000015
vn 0.000000 1.000000 -0.000015
vn 0.000000 1.000000 -0.000015
f 1/1/1 3/3/3 2/2/2
f 4/4/4 6/6/6 5/5/5
f 7/7/7 9/9/9 8/8/8
f 10/10/10 12/12/12 11/11/11
f 13/13/13 14/14/14 12/12/12
f 14/14/14 15/15/15 12/12/12
f 11/11/11 12/12/12 15/15/15
f 16/16/16 18/18/18 17/17/17
f 19/19/19 17/17/17 18/18/18
f 20/20/20 22/22/22 21/21/21
