v 1.000000 6.552137 1.000000
v 0.500000 6.552137 1.000000
v 1.000000 6.552137 0.500000
v 1.000000 0.200000 0.500000
v 1.000000 6.552137 0.500000
v 0.500000 0.000000 1.000000
v 0.500000 6.552137 1.000000
v 0.500000 0.000000 1.000000
v 1.000000 6.552137 0.500000
v 0.000000 0.000000 0.000000
v 1.000000 0.200000 0.000000
v 0.000000 0.000000 1.000000
v 1.000000 0.200000 0.500000
v 0.500000 0.000000 1.000000
v 2.000000 6.552137 1.000000
v 2.000000 6.552137 0.500000
v 2.000000 0.300000 0.500000
v 2.000000 6.552137 0.500000
v 1.000000 0.200000 0.500000
v 1.000000 6.552137 0.500000
v 2.000000 0.300000 0.500000
v 2.000000 0.300000 0.000000
v 3.000000 6.552137 1.000000
v 3.000000 6.552137 0.500000
v 3.500000 6.552137 1.000000
v 3.500000 0.000000 1.000000
v 3.500000 6.552137 1.000000
v 3.000000 0.000000 0.500000
v 3.000000 6.552137 0.500000
v 4.000000 0.000000 0.000000
v 4.000000 0.000000 1.000000
v 3.000000 0.000000 0.000000
v 3.500000 0.000000 1.000000
v 3.000000 0.000000 0.500000
v 3.000000 0.000000 0.500000
v 3.000000 6.552137 0.500000
v 1.000000 3.141500 2.000000
v 1.000000 3.141500 2.500000
v 0.500000 3.141500 2.000000
v 0.500000 0.000000 2.000000
v 0.500000 3.141500 2.000000
v 1.000000 0.000000 2.500000
v 1.000000 3.141500 2.500000
v 0.000000 0.000000 3.000000
v 0.000000 0.000000 2.000000
v 1.000000 0.000000 3.000000
v 0.500000 0.000000 2.000000
v 1.000000 0.000000 2.500000
v 1.000000 3.141500 1.500000
v 0.500000 3.141500 1.000000
v 0.500000 3.141500 2.000000
v 0.500000 0.000000 1.000000
v 0.500000 3.141500 1.000000
v 0.500000 0.000000 2.000000
v 0.500000 3.141500 2.000000
v 0.500000 0.000000 2.000000
v 0.500000 3.141500 1.000000
v 1.000000 6.552137 1.500000
v 0.500000 3.141500 1.000000
v 0.500000 6.552137 1.000000
v 1.000000 3.141500 1.500000
v 1.000000 6.552137 1.500000
v 2.000000 -8.552137 2.000000
v 1.500000 -8.552137 2.000000
v 2.000000 -8.552137 1.500000
v 2.000000 -8.552137 1.500000
v 1.500000 -8.552137 2.000000
v 2.000000 3.141500 1.500000
v 1.500000 3.141500 2.000000
v 2.000000 3.141500 1.500000
v 1.500000 -8.552137 2.000000
v 2.000000 3.141500 1.500000
v 1.500000 3.141500 2.000000
v 1.000000 3.141500 1.500000
v 2.000000 6.552137 1.500000
v 1.000000 3.141500 1.500000
v 1.000000 6.552137 1.500000
v 2.000000 3.141500 1.500000
v 2.000000 6.552137 1.500000
v 3.000000 6.552137 1.500000
v 3.500000 6.552137 2.000000
v 3.500000 6.552137 1.000000
v 3.500000 0.000000 2.000000
v 3.500000 6.552137 2.000000
v 3.500000 0.000000 1.000000
v 3.500000 6.552137 1.000000
v 3.500000 0.000000 1.000000
v 3.500000 6.552137 2.000000
v 3.500000 0.000000 2.000000
v 4.000000 0.000000 2.000000
v 3.000000 7.552137 2.000000
v 3.000000 7.552137 1.500000
v 3.500000 7.552137 2.000000
v 3.500000 6.552137 2.000000
v 3.500000 7.552137 2.000000
v 3.000000 6.552137 1.500000
v 3.000000 7.552137 1.500000
v 2.500000 -8.552137 2.000000
v 2.000000 -8.552137 2.500000
v 2.000000 -8.552137 2.500000
v 2.500000 -8.552137 2.000000
v 2.000000 6.555500 2.500000
v 2.500000 6.555500 2.000000
v 2.000000 6.555500 2.500000
v 2.500000 -8.552137 2.000000
v 3.000000 6.660000 3.000000
v 2.500000 6.607750 3.000000
v 3.000000 6.660000 2.500000
v 2.000000 6.555500 3.000000
v 2.000000 6.555500 2.500000
v 2.500000 6.555500 2.000000
v 2.500000 6.555500 2.000000
v 2.500000 7.552137 2.000000
v 3.000000 6.660000 2.500000
v 3.000000 7.552137 2.500000
v 3.000000 7.552137 2.500000
v 2.500000 7.552137 2.000000
v 2.500000 -8.552137 2.000000
v 2.000000 -8.552137 1.500000
v 2.500000 6.552137 2.000000
v 2.000000 6.552137 1.500000
v 2.500000 6.552137 1.000000
v 2.500000 6.552137 2.000000
v 2.500000 6.552137 2.000000
v 3.000000 6.552137 1.500000
v 2.500000 7.552137 2.000000
v 3.000000 7.552137 1.500000
v 2.500000 7.552137 2.000000
v 3.000000 6.552137 1.500000
v 2.500000 7.552137 2.000000
v 3.000000 6.660000 2.500000
v 3.500000 6.660000 3.000000
v 3.500000 6.660000 2.000000
v 3.500000 0.000000 3.000000
v 3.500000 6.660000 3.000000
v 3.500000 6.660000 2.000000
v 3.500000 0.000000 2.000000
v 3.500000 6.660000 3.000000
v 3.500000 0.000000 3.000000
v 4.000000 0.000000 3.000000
v 3.000000 7.552137 2.500000
v 3.000000 6.660000 2.500000
v 3.000000 7.552137 2.500000
v 3.500000 6.660000 2.000000
v 3.500000 7.552137 2.000000
v 3.500000 6.660000 2.000000
v 3.000000 7.552137 2.500000
v 1.500000 -8.552137 2.000000
v 2.000000 -8.552137 2.500000
v 1.500000 3.141500 2.000000
v 2.000000 3.141500 2.500000
v 2.000000 3.141500 3.000000
v 2.000000 3.141500 2.500000
v 1.500000 3.141500 3.000000
v 1.500000 0.000000 3.000000
v 1.500000 0.000000 3.000000
v 1.500000 3.141500 3.000000
v 1.500000 6.555500 3.000000
v 2.000000 6.555500 2.500000
v 1.500000 0.000000 3.000000
v 1.500000 6.555500 3.000000
v 1.500000 0.000000 3.000000
v 2.000000 6.555500 2.500000
vt 0.000000 1.000000
vt 0.000000 0.000000
vt 0.000000 0.000000
vt 1.000000 0.000000
vt 1.000000 0.000000
vt 1.000000 0.000000
vt 1.000000 0.000000
vt 1.000000 0.000000
vt 1.000000 0.000000
vt 0.000000 1.000000
vt 0.000000 1.000000
vt 0.000000 1.000000
vt 1.000000 1.000000
vt 1.000000 1.000000
vt 0.000000 1.000000
vt 0.000000 0.000000
vt 1.000000 0.000000
vt 1.000000 0.000000
vt 1.000000 0.000000
vt 1.000000 0.000000
vt 1.000000 1.000000
vt 0.000000 1.000000
vt 0.000000 1.000000
vt 0.000000 0.000000
vt 0.000000 0.000000
vt 1.000000 0.000000
vt 1.000000 0.000000
vt 1.000000 0.000000
vt 1.000000 0.000000
vt 0.000000 1.000000
vt 0.000000 1.000000
vt 0.000000 1.000000
vt 1.000000 1.000000
vt 1.000000 1.000000
vt 1.000000 0.000000
vt 1.000000 0.000000
vt 0.000000 1.000000
vt 0.000000 0.000000
vt 0.000000 0.000000
vt 1.000000 0.000000
vt 1.000000 0.000000
vt 1.000000 0.000000
vt 1.000000 0.000000
vt 0.000000 1.000000
vt 0.000000 1.000000
vt 0.000000 1.000000
vt 1.000000 1.000000
vt 1.000000 1.000000
vt 1.000000 1.000000
vt 1.000000 0.000000
vt -1.000000 0.000000
vt 1.000000 0.000000
vt 1.000000 0.000000
vt 1.000000 0.000000
vt 1.000000 0.000000
vt 1.000000 0.000000
vt 1.000000 0.000000
vt 0.000000 0.000000
vt 1.000000 0.000000
vt 1.000000 0.000000
vt 1.000000 0.000000
vt 1.000000 0.000000
vt 0.000000 1.000000
vt 1.000000 1.000000
vt 1.000000 1.000000
vt 1.000000 0.000000
vt 1.000000 0.000000
vt 1.000000 0.000000
vt 1.000000 0.000000
vt 1.000000 0.000000
vt 1.000000 0.000000
vt 1.000000 0.000000
vt 0.000000 0.000000
vt 1.000000 2.000000
vt 0.000000 0.000000
vt 1.000000 0.000000
vt 1.000000 0.000000
vt 1.000000 0.000000
vt 1.000000 0.000000
vt 1.000000 1.000000
vt 1.000000 0.000000
vt -1.000000 0.000000
vt 1.000000 0.000000
vt 1.000000 0.000000
vt 1.000000 0.000000
vt 1.000000 0.000000
vt 1.000000 0.000000
vt 1.000000 0.000000
vt 1.000000 1.000000
vt 0.000000 1.000000
vt 0.000000 1.000000
vt 0.000000 0.000000
vt 0.000000 0.000000
vt 1.000000 0.000000
vt 1.000000 0.000000
vt 1.000000 0.000000
vt 1.000000 0.000000
vt 1.000000 1.000000
vt 1.000000 1.000000
vt 1.000000 0.000000
vt 1.000000 0.000000
vt 1.000000 0.000000
vt 1.000000 0.000000
vt 1.000000 0.000000
vt 1.000000 0.000000
vt 0.000000 1.000000
vt 0.000000 1.000000
vt 0.000000 1.000000
vt 0.000000 1.000000
vt 0.000000 1.000000
vt 0.000000 1.000000
vt 1.000000 0.000000
vt 1.000000 0.000000
vt 1.000000 0.000000
vt 1.000000 0.000000
vt 0.000000 1.000000
vt 0.000000 1.000000
vt 1.000000 0.000000
vt 1.000000 0.000000
vt 1.000000 0.000000
vt 1.000000 0.000000
vt 0.000000 1.000000
vt 1.000000 0.000000
vt 1.000000 0.000000
vt 1.000000 0.000000
vt 1.000000 0.000000
vt 1.000000 0.000000
vt 1.000000 0.000000
vt 1.000000 0.000000
vt 0.000000 0.000000
vt 1.000000 1.000000
vt -1.000000 0.000000
vt 1.000000 0.000000
vt 1.000000 0.000000
vt 1.000000 0.000000
vt 1.000000 0.000000
vt 1.000000 0.000000
vt 1.000000 0.000000
vt 1.000000 1.000000
vt 0.000000 1.000000
vt 0.000000 0.000000
vt 1.000000 0.000000
vt 1.000000 0.000000
vt 1.000000 0.000000
vt 1.000000 0.000000
vt 1.000000 0.000000
vt 1.000000 0.000000
vt 1.000000 0.000000
vt 1.000000 0.000000
vt 1.000000 0.000000
vt 1.000000 0.000000
vt 0.000000 1.000000
vt 0.000000 0.000000
vt 0.000000 0.000000
vt 1.000000 1.000000
vt 1.000000 0.000000
vt 1.000000 0.000000
vt 0.000000 0.000000
vt 0.000000 0.000000
vt 1.000000 0.000000
vt 1.000000 0.000000
vt 1.000000 0.000000
vt 1.000000 0.000000
vn 0.000000 1.000000 -0.000015
vn 0.000000 1.000000 -0.000015
vn 0.000000 1.000000 -0.000015
vn -0.707118 0.000000 -0.707096
vn -0.707118 0.000000 -0.707096
vn -0.707118 0.000000 -0.707096
vn -0.707118 0.000000 -0.707096
vn -0.707118 0.000000 -0.707096
vn -0.707118 0.000000 -0.707096
vn -0.196130 0.980578 0.000018
vn -0.169020 0.984359 0.049694
vn -0.049402 0.997557 0.049402
vn -0.191831 0.981428 0.000018
vn -0.126359 0.989738 0.066726
vn 0.000000 1.000000 -0.000015
vn 0.000000 1.000000 -0.000015
vn 0.000000 0.000000 -1.000000
vn 0.000000 0.000000 -1.000000
vn 0.000000 0.000000 -1.000000
vn 0.000000 0.000000 -1.000000
vn 0.161117 0.986935 0.000018
vn 0.029927 0.999552 0.000047
vn 0.000000 1.000000 -0.000015
vn 0.000000 1.000000 -0.000015
vn 0.000000 1.000000 -0.000015
vn 0.707118 0.000000 -0.707096
vn 0.707118 0.000000 -0.707096
vn 0.707118 0.000000 -0.707096
vn 0.707118 0.000000 -0.707096
vn 0.000000 1.000000 -0.000015
vn 0.000000 1.000000 -0.000015
vn 0.145206 0.989401 0.000017
vn 0.000000 1.000000 -0.000015
vn 0.096664 0.995317 0.000050
vn 0.000000 0.000000 -1.000000
vn 0.000000 0.000000 -1.000000
vn 0.000000 1.000000 -0.000015
vn 0.000000 1.000000 -0.000015
vn 0.000000 1.000000 -0.000015
vn -0.707150 -0.000022 0.707064
vn -0.707150 -0.000022 0.707064
vn -0.707150 -0.000022 0.707064
vn -0.707150 -0.000022 0.707064
vn 0.000000 1.000000 -0.000015
vn 0.000000 1.000000 -0.000015
vn 0.000000 1.000000 -0.000015
vn 0.000000 1.000000 -0.000015
vn 0.000000 1.000000 -0.000015
vn 0.000000 1.000000 -0.000015
vn 0.000000 1.000000 -0.000015
vn 0.000000 1.000000 -0.000015
vn -1.000000 0.000000 -0.000015
vn -1.000000 0.000000 -0.000015
vn -1.000000 0.000000 -0.000015
vn -1.000000 0.000000 -0.000015
vn -1.000000 0.000000 -0.000015
vn -1.000000 0.000000 -0.000015
vn 0.000000 1.000000 -0.000015
vn -0.707150 -0.000022 0.707064
vn -0.707150 -0.000022 0.707064
vn -0.707150 -0.000022 0.707064
vn -0.707150 -0.000022 0.707064
vn 0.000000 1.000000 -0.000015
vn 0.000000 1.000000 -0.000015
vn 0.000000 1.000000 -0.000015
vn 0.707107 -0.000022 0.707107
vn 0.707107 -0.000022 0.707107
vn 0.707107 -0.000022 0.707107
vn 0.707107 -0.000022 0.707107
vn 0.707107 -0.000022 0.707107
vn 0.707107 -0.000022 0.707107
vn 0.000000 1.000000 -0.000015
vn 0.000000 1.000000 -0.000015
vn 0.000000 1.000000 -0.000015
vn 0.000000 1.000000 -0.000015
vn -0.000015 -0.000015 1.000000
vn -0.000015 -0.000015 1.000000
vn -0.000015 -0.000015 1.000000
vn -0.000015 -0.000015 1.000000
vn 0.000000 1.000000 -0.000015
vn 0.000000 1.000000 -0.000015
vn 0.000000 1.000000 -0.000015
vn 1.000000 0.000000 -0.000015
vn 1.000000 0.000000 -0.000015
vn 1.000000 0.000000 -0.000015
vn 1.000000 0.000000 -0.000015
vn 1.000000 0.000000 -0.000015
vn 1.000000 0.000000 -0.000015
vn 0.000000 1.000000 -0.000015
vn 0.000000 1.000000 -0.000015
vn 0.000000 1.000000 -0.000015
vn 0.000000 1.000000 -0.000015
vn 0.000000 1.000000 -0.000015
vn 0.707118 0.000000 -0.707096
vn 0.707118 0.000000 -0.707096
vn 0.707118 0.000000 -0.707096
vn 0.707118 0.000000 -0.707096
vn 0.000000 1.000000 -0.000015
vn 0.000000 1.000000 -0.000015
vn -0.707118 0.000000 -0.707096
vn -0.707118 0.000000 -0.707096
vn -0.707118 0.000000 -0.707096
vn -0.707118 0.000000 -0.707096
vn -0.707118 0.000000 -0.707096
vn -0.707118 0.000000 -0.707096
vn -0.052042 0.998645 -0.000016
vn -0.103762 0.994264 -0.025949
vn -0.064827 0.997813 -0.012916
vn -0.052042 0.998645 -0.000016
vn -0.052082 0.998491 -0.017388
vn -0.103520 0.993272 -0.051900
vn -0.707150 -0.000022 0.707064
vn -0.707150 -0.000022 0.707064
vn -0.707150 -0.000022 0.707064
vn -0.707150 -0.000022 0.707064
vn 0.000000 1.000000 -0.000015
vn 0.000000 1.000000 -0.000015
vn -0.707150 -0.000022 0.707064
vn -0.707150 -0.000022 0.707064
vn -0.707150 -0.000022 0.707064
vn -0.707150 -0.000022 0.707064
vn 0.000000 1.000000 -0.000015
vn 0.000000 1.000000 -0.000015
vn -0.707118 0.000000 -0.707096
vn -0.707118 0.000000 -0.707096
vn -0.707118 0.000000 -0.707096
vn -0.707118 0.000000 -0.707096
vn -0.707118 0.000000 -0.707096
vn -0.707118 0.000000 -0.707096
vn 0.000000 1.000000 -0.000015
vn -0.064827 0.997813 -0.012916
vn 0.000000 1.000000 -0.000015
vn 0.000000 1.000000 -0.000015
vn 1.000000 0.000000 -0.000015
vn 1.000000 0.000000 -0.000015
vn 1.000000 0.000000 -0.000015
vn 1.000000 0.000000 -0.000015
vn 1.000000 0.000000 -0.000015
vn 0.000000 1.000000 -0.000015
vn 0.000000 1.000000 -0.000015
vn 0.000000 1.000000 -0.000015
vn 0.707107 -0.000022 0.707107
vn 0.707107 -0.000022 0.707107
vn 0.707107 -0.000022 0.707107
vn 0.707107 -0.000022 0.707107
vn 0.707107 -0.000022 0.707107
vn 0.707107 -0.000022 0.707107
vn 0.707118 0.000000 -0.707096
vn 0.707118 0.000000 -0.707096
vn 0.707118 0.000000 -0.707096
vn 0.707118 0.000000 -0.707096
vn 0.000000 1.000000 -0.000015
vn 0.000000 1.000000 -0.000015
vn 0.000000 1.000000 -0.000015
vn 0.000000 1.000000 -0.000015
vn -0.707150 -0.000022 0.707064
vn -0.707150 -0.000022 0.707064
vn 0.000000 1.000000 -0.000015
vn -0.052082 0.998491 -0.017388
vn -0.707118 0.000000 -0.707096
vn -0.707118 0.000000 -0.707096
vn -0.707118 0.000000 -0.707096
vn -0.707118 0.000000 -0.707096
f 1/1/1 3/3/3 2/2/2
f 4/4/4 6/6/6 5/5/5
f 7/7/7 9/9/9 8/8/8
f 10/10/10 12/12/12 11/11/11
f 11/11/11 14/14/14 13/13/13
f 12/12/12 14/14/14 11/11/11
f 15/15/15 16/16/16 1/1/1
f 3/3/3 1/1/1 16/16/16
f 17/17/17 19/19/19 18/18/18
f 20/20/20 18/18/18 19/19/19
f 21/21/21 22/22/22 13/13/13
f 11/11/11 13/13/13 22/22/22
f 23/23/23 25/25/25 24/24/24
f 26/26/26 28/28/28 27/27/27
f 29/29/29 27/27/27 28/28/28
f 30/30/30 32/32/32 31/31/31
f 31/31/31 34/34/34 33/33/33
f 32/32/32 34/34/34 31/31/31
f 23/23/23 24/24/24 15/15/15
f 16/16/16 15/15/15 24/24/24
f 35/35/35 17/17/17 36/36/36
f 18/18/18 36/36/36 17/17/17
f 34/34/34 32/32/32 21/21/21
f 22/22/22 21/21/21 32/32/32
f 37/37/37 39/39/39 38/38/38
f 40/40/40 42/42/42 41/41/41
f 43/43/43 41/41/41 42/42/42
f 44/44/44 46/46/46 45/45/45
f 45/45/45 48/48/48 47/47/47
f 46/46/46 48/48/48 45/45/45
f 49/49/49 50/50/50 37/37/37
f 51/51/51 37/37/37 50/50/50
f 52/52/52 54/54/54 53/53/53
f 55/55/55 57/57/57 56/56/56
f 14/14/14 12/12/12 47/47/47
f 45/45/45 47/47/47 12/12/12
f 1/1/1 2/2/2 58/58/58
f 59/59/59 61/61/61 60/60/60
f 62/62/62 60/60/60 61/61/61
f 63/63/63 65/65/65 64/64/64
f 66/66/66 68/68/68 67/67/67
f 69/69/69 71/71/71 70/70/70
f 37/37/37 73/73/73 72/72/72
f 37/37/37 72/72/72 74/74/74
f 1/1/1 58/58/58 15/15/15
f 75/75/75 15/15/15 58/58/58
f 76/76/76 78/78/78 77/77/77
f 79/79/79 77/77/77 78/78/78
f 80/80/80 81/81/81 23/23/23
f 82/82/82 23/23/23 81/81/81
f 83/83/83 85/85/85 84/84/84
f 86/86/86 88/88/88 87/87/87
f 89/89/89 90/90/90 33/33/33
f 31/31/31 33/33/33 90/90/90
f 91/91/91 93/93/93 92/92/92
f 94/94/94 96/96/96 95/95/95
f 97/97/97 95/95/95 96/96/96
f 63/63/63 99/99/99 98/98/98
f 100/100/100 102/102/102 101/101/101
f 103/103/103 105/105/105 104/104/104
f 106/106/106 108/108/108 107/107/107
f 109/109/109 107/107/107 110/110/110
f 110/110/110 107/107/107 111/111/111
f 108/108/108 111/111/111 107/107/107
f 112/112/112 114/114/114 113/113/113
f 115/115/115 113/113/113 114/114/114
f 91/91/91 117/117/117 116/116/116
f 63/63/63 98/98/98 65/65/65
f 118/118/118 120/120/120 119/119/119
f 121/121/121 119/119/119 120/120/120
f 23/23/23 122/122/122 80/80/80
f 15/15/15 75/75/75 122/122/122
f 75/75/75 123/123/123 122/122/122
f 80/80/80 122/122/122 123/123/123
f 124/124/124 126/126/126 125/125/125
f 127/127/127 129/129/129 128/128/128
f 91/91/91 92/92/92 130/130/130
f 106/106/106 132/132/132 131/131/131
f 133/133/133 131/131/131 132/132/132
f 134/134/134 83/83/83 135/135/135
f 136/136/136 138/138/138 137/137/137
f 139/139/139 140/140/140 89/89/89
f 90/90/90 89/89/89 140/140/140
f 91/91/91 141/141/141 93/93/93
f 142/142/142 144/144/144 143/143/143
f 145/145/145 147/147/147 146/146/146
f 63/63/63 64/64/64 99/99/99
f 148/148/148 150/150/150 149/149/149
f 151/151/151 149/149/149 150/150/150
f 152/152/152 153/153/153 37/37/37
f 37/37/37 153/153/153 73/73/73
f 152/152/152 37/37/37 154/154/154
f 37/37/37 38/38/38 154/154/154
f 46/46/46 155/155/155 48/48/48
f 156/156/156 157/157/157 42/42/42
f 43/43/43 42/42/42 157/157/157
f 109/109/109 159/159/159 158/158/158
f 100/100/100 160/160/160 102/102/102
f 161/161/161 163/163/163 162/162/162
